<svg width="46" height="46" viewBox="0 0 46 46" fill="none" xmlns="http://www.w3.org/2000/svg">
<g style="mix-blend-mode:exclusion">
<path d="M23 2.875C11.8853 2.875 2.875 11.8853 2.875 23C2.875 32.4386 9.3725 40.3578 18.1384 42.5327V29.1496H13.9883V23H18.1384V20.3507C18.1384 13.501 21.2376 10.3256 27.9637 10.3256C29.2387 10.3256 31.4381 10.5757 32.338 10.8258V16.4004C31.8636 16.3501 31.0385 16.3257 30.0136 16.3257C26.7131 16.3257 25.438 17.5763 25.438 20.8251V23H32.0117L30.8818 29.1496H25.438V42.9769C35.4027 41.7738 43.125 33.2882 43.125 23C43.125 11.8853 34.1147 2.875 23 2.875Z" fill="white"/>
</g>
</svg>
