<svg width="46" height="46" viewBox="0 0 46 46" fill="none" xmlns="http://www.w3.org/2000/svg">
<g style="mix-blend-mode:exclusion">
<path d="M14.6654 42.9841C12.5235 42.8835 11.0616 42.5413 9.78362 42.0397C8.46112 41.5236 7.33987 40.8322 6.22294 39.7123C5.10744 38.5925 4.42031 37.4698 3.90856 36.1459C3.41262 34.8651 3.07769 33.4017 2.98281 31.2584C2.88794 29.1165 2.86781 28.4265 2.87787 22.9626C2.88794 17.4987 2.91237 16.813 3.01587 14.6653C3.11794 12.5249 3.45862 11.063 3.96031 9.78359C4.47637 8.46109 5.16781 7.33984 6.28762 6.2229C7.40744 5.10741 8.52869 4.42171 9.85694 3.90853C11.1363 3.41403 12.6011 3.07622 14.743 2.98278C16.8849 2.88934 17.5749 2.86778 23.0388 2.87784C28.5028 2.88791 29.1899 2.91234 31.3375 3.0144C33.4851 3.11647 34.9384 3.45859 36.2178 3.95884C37.5403 4.47634 38.663 5.16634 39.7785 6.28759C40.894 7.40884 41.5811 8.53153 42.0914 9.8569C42.5874 11.1363 42.9238 12.6011 43.0172 14.7415C43.1106 16.8892 43.1336 17.5748 43.1221 23.0402C43.1106 28.5056 43.0876 29.1898 42.9856 31.336C42.8835 33.4822 42.5428 34.9398 42.0411 36.2192C41.5236 37.5417 40.8336 38.663 39.7138 39.7799C38.594 40.8968 37.4699 41.5825 36.1445 42.0928C34.8637 42.5888 33.4003 42.9266 31.2584 43.0186C29.1166 43.1106 28.4266 43.135 22.9612 43.125C17.4958 43.1149 16.8116 43.0905 14.6654 42.987M14.9011 6.60528C12.9389 6.69009 11.8737 7.0164 11.1636 7.28953C10.2235 7.65178 9.55362 8.09022 8.84637 8.79028C8.13912 9.49034 7.70356 10.1631 7.337 11.1018C7.061 11.8119 6.72894 12.8757 6.63694 14.8378C6.53775 16.9582 6.51619 17.595 6.50469 22.9683C6.49319 28.3417 6.51331 28.9771 6.60675 31.0988C6.69012 33.0596 7.01787 34.1262 7.291 34.8363C7.65325 35.7779 8.09025 36.4463 8.79175 37.1536C9.49325 37.8608 10.1646 38.2964 11.1032 38.663C11.8119 38.9404 12.8771 39.2696 14.8379 39.363C16.9596 39.4637 17.5964 39.4838 22.9684 39.4953C28.3403 39.5068 28.9786 39.4867 31.1018 39.3932C33.0625 39.3084 34.1291 38.9835 34.8378 38.709C35.7779 38.3467 36.4478 37.9112 37.1551 37.2082C37.8623 36.5053 38.2979 35.8368 38.6659 34.8953C38.9433 34.188 39.2725 33.1243 39.3645 31.1621C39.4651 29.0403 39.4881 28.4035 39.4982 23.0316C39.5083 17.6597 39.4896 17.0214 39.3961 14.9011C39.3099 12.9389 38.985 11.8737 38.7119 11.1622C38.3496 10.222 37.9126 9.55215 37.2097 8.84491C36.5068 8.13765 35.8369 7.70209 34.8982 7.33553C34.1895 7.05953 33.1243 6.7289 31.165 6.63547C29.0433 6.53628 28.4064 6.51472 23.0331 6.50322C17.6597 6.49172 17.0229 6.51328 14.9011 6.60528ZM31.3073 33.7568C31.3102 32.4228 32.3926 31.3432 33.7266 31.3461C35.0606 31.349 36.1402 32.4314 36.1373 33.7654C36.1344 35.0994 35.052 36.179 33.718 36.1761C32.384 36.1732 31.3059 35.0908 31.3073 33.7568ZM12.6672 22.9813C12.6788 17.2744 17.3133 12.6572 23.0201 12.6687C28.727 12.6802 33.3457 17.3147 33.3356 23.0215C33.3241 28.7284 28.6882 33.3471 22.9813 33.3356C17.2744 33.3241 12.6558 28.6882 12.6672 22.9813ZM16.2941 22.9885C16.2869 26.6929 19.2841 29.703 22.9899 29.7102C26.6944 29.7174 29.7045 26.7202 29.7117 23.0143C29.7189 19.3099 26.7217 16.2998 23.0158 16.2926C19.3114 16.2854 16.3013 19.2812 16.2941 22.9856" fill="white"/>
</g>
</svg>
